HIERARCHY
ROOT joint_Root
{
	OFFSET 0.0 0.0 0.0
	CHANNELS 6 Xposition Yposition Zposition Zrotation Xrotation Yrotation 
	JOINT Hips
	{
		OFFSET -17.1583 93.1646 452.98
		CHANNELS 6 Xposition Yposition Zposition Zrotation Xrotation Yrotation 
		JOINT Spine
		{
			OFFSET 15.7357 0.0 0.0
			CHANNELS 6 Xposition Yposition Zposition Zrotation Xrotation Yrotation 
			JOINT Chest
			{
				OFFSET 8.98455 -0.406207 0.0
				CHANNELS 6 Xposition Yposition Zposition Zrotation Xrotation Yrotation 
				JOINT Neck
				{
					OFFSET 16.3773 0.0 0.0
					CHANNELS 6 Xposition Yposition Zposition Zrotation Xrotation Yrotation 
					JOINT Head
					{
						OFFSET 6.45672 0.0 0.0
						CHANNELS 6 Xposition Yposition Zposition Zrotation Xrotation Yrotation 
						End Site
						{
							OFFSET 0.0 0.0 0.0
						}
					}
				}
				JOINT Shoulder_L
				{
					OFFSET 12.9942 -0.242716 4.98039
					CHANNELS 6 Xposition Yposition Zposition Zrotation Xrotation Yrotation 
					JOINT UpperArm_L
					{
						OFFSET 5.34809 0.0 0.0
						CHANNELS 6 Xposition Yposition Zposition Zrotation Xrotation Yrotation 
						JOINT LowerArm_L
						{
							OFFSET 24.3286 1.87007e-05 0.0
							CHANNELS 6 Xposition Yposition Zposition Zrotation Xrotation Yrotation 
							JOINT Hand_L
							{
								OFFSET 22.2916 0.0 0.0
								CHANNELS 6 Xposition Yposition Zposition Zrotation Xrotation Yrotation 
								End Site
								{
									OFFSET 0.0 0.0 0.0
								}
							}
						}
					}
				}
				JOINT Shoulder_R
				{
					OFFSET 12.9945 -0.242716 -4.98039
					CHANNELS 6 Xposition Yposition Zposition Zrotation Xrotation Yrotation 
					JOINT UpperArm_R
					{
						OFFSET -5.34813 0.0 0.0
						CHANNELS 6 Xposition Yposition Zposition Zrotation Xrotation Yrotation 
						JOINT LowerArm_R
						{
							OFFSET -24.3289 0.000322201 0.0
							CHANNELS 6 Xposition Yposition Zposition Zrotation Xrotation Yrotation 
							JOINT Hand_R
							{
								OFFSET -22.2915 -0.000108084 0.0
								CHANNELS 6 Xposition Yposition Zposition Zrotation Xrotation Yrotation 
								End Site
								{
									OFFSET 0.0 0.0 0.0
								}
							}
						}
					}
				}
			}
		}
		JOINT UpperLeg_L
		{
			OFFSET -2.19248 -6.46944 0.0
			CHANNELS 6 Xposition Yposition Zposition Zrotation Xrotation Yrotation 
			JOINT LowerLeg_L
			{
				OFFSET 39.0811 0.0 -1.23785e-05
				CHANNELS 6 Xposition Yposition Zposition Zrotation Xrotation Yrotation 
				JOINT Foot_L
				{
					OFFSET 40.9854 0.0 -1.26872e-05
					CHANNELS 6 Xposition Yposition Zposition Zrotation Xrotation Yrotation 
					JOINT Toes_L
					{
						OFFSET 11.7543 0.0 0.0
						CHANNELS 6 Xposition Yposition Zposition Zrotation Xrotation Yrotation 
						End Site
						{
							OFFSET 0.0 0.0 0.0
						}
					}
				}
			}
		}
		JOINT UpperLeg_R
		{
			OFFSET -2.19251 6.46944 0.0
			CHANNELS 6 Xposition Yposition Zposition Zrotation Xrotation Yrotation 
			JOINT LowerLeg_R
			{
				OFFSET -39.0811 -0.00228153 -0.0401928
				CHANNELS 6 Xposition Yposition Zposition Zrotation Xrotation Yrotation 
				JOINT Foot_R
				{
					OFFSET -40.9854 0.0 0.0
					CHANNELS 6 Xposition Yposition Zposition Zrotation Xrotation Yrotation 
					JOINT Toes_R
					{
						OFFSET -11.7543 0.0 0.0
						CHANNELS 6 Xposition Yposition Zposition Zrotation Xrotation Yrotation 
						End Site
						{
							OFFSET 0.0 0.0 0.0
						}
					}
				}
			}
		}
	}
}
MOTION
Frames:	4
Frame Time:	0.0333333
0.000000 0.000000 0.000000 0.000000 0.000000 -0.000000 -0.419282 92.972200 -0.275900 86.256700 -4.976320 -1.293290 15.735700 0.000005 -0.000001 83.624900 87.411300 -81.206500 8.984550 -0.406207 -0.000000 -2.599360 -0.793302 4.818960 16.377300 -0.000001 -0.000001 2.555680 3.832770 0.244876 6.456720 -0.000001 -0.000000 2.230840 6.034910 -6.523260 12.994200 -0.242716 4.980390 -92.578300 8.010640 -72.093200 5.348090 -0.000007 -0.000001 -74.596000 13.931600 2.818450 24.328600 0.000019 0.000005 12.929100 23.669100 -29.762500 22.291600 -0.000001 0.000005 -0.420391 4.998510 7.351100 12.994500 -0.242716 -4.980390 88.996300 3.212940 -72.640700 -5.348130 -0.000001 -0.000004 -70.718700 18.806400 -2.773000 -24.328900 0.000322 -0.000009 2.130310 4.361530 -26.074400 -22.291500 -0.000108 -0.000004 4.405310 5.235110 1.822950 -2.192480 -6.469440 -0.000000 -176.180000 -3.113910 -4.086750 39.081100 -0.000007 -0.000012 0.202117 -0.573437 19.416200 40.985400 -0.000006 -0.000013 2.497430 7.153130 -71.817800 11.754300 -0.000000 0.000003 0.000007 0.167499 -9.783140 -2.192510 6.469440 -0.000001 -175.112000 5.856010 -179.521000 -39.081100 -0.002282 -0.040193 0.014320 -0.056067 11.083300 -40.985400 0.000008 0.000006 -1.897300 4.603250 -67.536700 -11.754300 -0.000006 -0.000006 -0.009569 0.268056 -5.683830
0.000000 0.000000 0.000000 0.000000 0.000000 -0.000000 -0.430587 92.982000 -0.282914 86.240600 -4.974820 -1.433450 15.735700 0.000005 -0.000001 83.089500 87.400200 -80.643600 8.984550 -0.406207 -0.000000 -2.581570 -0.846119 4.872810 16.377300 -0.000001 -0.000001 2.342320 3.744250 0.381931 6.456720 -0.000001 -0.000000 1.980580 5.962990 -6.329990 12.994200 -0.242716 4.980390 -92.576900 7.985840 -72.050500 5.348090 -0.000007 -0.000001 -74.264500 12.768700 2.959610 24.328600 0.000019 0.000005 13.510400 23.367500 -31.206700 22.291600 -0.000001 0.000005 -0.305635 4.994810 7.429890 12.994500 -0.242716 -4.980390 89.008300 3.170790 -72.623300 -5.348130 -0.000001 -0.000004 -70.265400 17.057500 -2.754240 -24.328900 0.000322 -0.000009 2.565840 4.796660 -28.194500 -22.291500 -0.000108 -0.000004 4.225320 5.222320 2.153740 -2.192480 -6.469440 -0.000000 -176.176000 -3.073900 -4.212220 39.081100 -0.000007 -0.000012 0.204928 -0.582515 19.382200 40.985400 -0.000006 -0.000013 2.478600 7.099500 -71.875200 11.754300 -0.000000 0.000003 -0.000148 0.170086 -9.678070 -2.192510 6.469440 -0.000001 -175.073000 5.798660 -179.603000 -39.081100 -0.002282 -0.040193 0.013303 -0.051523 10.947100 -40.985400 0.000008 0.000006 -1.944120 4.528500 -67.454500 -11.754300 -0.000006 -0.000006 -0.009667 0.268801 -5.653400
0.000000 0.000000 0.000000 0.000000 0.000000 -0.000000 -0.454790 92.983500 -0.282598 86.170300 -4.981010 -1.567490 15.735700 0.000005 -0.000001 83.323400 87.386700 -80.832800 8.984550 -0.406207 -0.000000 -2.552010 -0.831588 4.962810 16.377300 -0.000001 -0.000001 2.115730 3.576660 0.608852 6.456720 -0.000001 -0.000000 1.617920 5.865660 -6.156440 12.994200 -0.242716 4.980390 -92.590100 8.018930 -72.033700 5.348090 -0.000007 -0.000001 -73.783000 11.189900 3.354610 24.328600 0.000019 0.000005 14.504500 22.710500 -33.824900 22.291600 -0.000001 0.000005 -0.271698 4.987290 7.589220 12.994500 -0.242716 -4.980390 89.021100 3.105230 -72.493100 -5.348130 -0.000001 -0.000004 -69.854900 14.793900 -2.524250 -24.328900 0.000322 -0.000009 3.169920 5.258030 -31.152200 -22.291500 -0.000108 -0.000004 3.774830 5.203000 2.645230 -2.192480 -6.469440 -0.000000 -176.084000 -3.121130 -4.366180 39.081100 -0.000007 -0.000012 0.204660 -0.580211 19.429800 40.985400 -0.000006 -0.000013 2.461980 7.127940 -71.873000 11.754300 -0.000000 0.000003 -0.000126 0.169723 -9.692830 -2.192510 6.469440 -0.000001 -174.967000 5.621450 -179.681000 -39.081100 -0.002282 -0.040193 0.012417 -0.047437 10.835700 -40.985400 0.000008 0.000006 -2.050350 4.388930 -67.367600 -11.754300 -0.000006 -0.000006 -0.009418 0.266903 -5.731000
0.000000 0.000000 0.000000 0.000000 0.000000 -0.000000 -0.480906 92.985200 -0.300139 86.090600 -4.954710 -1.700610 15.735700 0.000005 -0.000001 83.099200 87.362500 -80.552400 8.984550 -0.406207 -0.000000 -2.505050 -0.861708 5.074600 16.377300 -0.000001 -0.000001 1.827030 3.430300 0.891293 6.456720 -0.000001 -0.000000 1.212990 5.839290 -5.936350 12.994200 -0.242716 4.980390 -92.622600 8.055980 -71.900200 5.348090 -0.000007 -0.000001 -73.291500 8.975750 4.047240 24.328600 0.000019 0.000005 15.826500 21.538100 -37.674300 22.291600 -0.000001 0.000005 -0.176490 4.972870 7.890780 12.994500 -0.242716 -4.980390 89.056100 2.981050 -72.421300 -5.348130 -0.000001 -0.000004 -69.505600 12.081800 -2.193840 -24.328900 0.000322 -0.000009 3.715410 5.381080 -34.705000 -22.291500 -0.000108 -0.000004 3.397610 5.186230 3.063530 -2.192480 -6.469440 -0.000000 -175.983000 -3.118730 -4.541430 39.081100 -0.000007 -0.000012 0.207374 -0.585254 19.511200 40.985400 -0.000006 -0.000013 2.450520 7.179630 -71.942600 11.754300 -0.000000 0.000003 -0.000122 0.169653 -9.695660 -2.192510 6.469440 -0.000001 -174.849000 5.484760 -179.778000 -39.081100 -0.002282 -0.040193 0.011459 -0.042839 10.734600 -40.985400 0.000008 0.000006 -2.136240 4.258160 -67.282500 -11.754300 -0.000006 -0.000006 -0.009655 0.268706 -5.657280
